<svg width="100" height="100" xmlns="http://www.w3.org/2000/svg">

 <metadata>popcornpopcorn,movie,theatrebyu998bl</metadata>
 <g>
  <title>Layer 1</title>
  <g id="svg_6">
   <path id="svg_7" stroke-miterlimit="10" stroke-width="3.5" stroke="#333" fill="#e15c64" d="m36.6,90l-7,0c-1.5,0 -2.7,-1.1 -2.9,-2.6l-5.5,-53.6l11.9,0l3.5,56.2z"/>
   <path id="svg_8" d="m46.2,90l-9.6,0l-3.4,-56.2l11.8,0l1.2,56.2z" stroke-miterlimit="10" stroke-width="3.5" stroke="#333" fill="#fff"/>
   <path id="svg_9" d="m55.8,90l-9.6,0l-1.2,-56.2l11.9,0l-1.1,56.2z" stroke-miterlimit="10" stroke-width="3.5" stroke="#333" fill="#e15c64"/>
   <path id="svg_10" d="m65.3,90l-9.5,0l1.1,-56.2l11.9,0l-3.5,56.2z" stroke-miterlimit="10" stroke-width="3.5" stroke="#333" fill="#fff"/>
   <path id="svg_11" stroke-miterlimit="10" stroke-width="3.5" stroke="#333" fill="#e15c64" d="m72.3,90l-7,0l3.4,-56.2l11.9,0l-5.5,53.6c-0.1,1.5 -1.3,2.6 -2.8,2.6z"/>
   <path id="svg_12" stroke-miterlimit="10" stroke-width="3.5" stroke="#333" fill="#f7b26a" d="m56.9,66.7l-12,0c-2.8,0 -5,-2.2 -5,-5l0,-4.5c0,-2.8 2.2,-5 5,-5l12,0c2.8,0 5,2.2 5,5l0,4.5c0,2.8 -2.2,5 -5,5z"/>
  </g>
 </g>
</svg>