<?xml version="1.0" encoding="iso-8859-1"?>
<!-- Generator: Adobe Illustrator 19.0.0, SVG Export Plug-In . SVG Version: 6.00 Build 0)  -->
<svg version="1.1" id="Layer_1" xmlns="http://www.w3.org/2000/svg" xmlns:xlink="http://www.w3.org/1999/xlink" x="0px" y="0px"
	 viewBox="0 0 512 512" style="enable-background:new 0 0 512 512;" xml:space="preserve">
<g>
	<polygon style="fill:#BDBDC0;" points="503.983,230.322 332.96,84.953 332.96,170.464 358.614,196.118 358.614,161.913 
		461.228,247.425 503.983,426.999 	"/>
	<polygon style="fill:#BDBDC0;" points="8.017,230.322 179.04,84.953 179.04,170.464 153.386,196.118 153.386,161.913 
		50.772,247.425 8.017,426.999 	"/>
</g>
<polygon style="fill:#E9E9EA;" points="8.017,230.322 8.017,426.999 217.52,426.999 256,350.038 294.48,426.999 503.983,426.999 
	503.983,230.322 "/>
<rect x="8.017" y="230.326" style="fill:#D3D3D5;" width="17.102" height="196.676"/>
<polygon style="fill:#FDB6CF;" points="320.905,384.243 298.756,339.946 298.756,273.078 461.228,273.078 461.228,384.243 "/>
<g>
	<polygon style="fill:#FD5E95;" points="298.756,273.078 298.756,339.946 305.802,354.038 386.761,273.078 	"/>
	<polygon style="fill:#FD5E95;" points="444.125,273.078 332.96,384.243 389.256,384.243 461.228,312.271 461.228,273.078 	"/>
	<polygon style="fill:#FD5E95;" points="408.139,384.243 461.228,384.243 461.228,331.155 	"/>
</g>
<polygon style="fill:#8DECF2;" points="191.095,384.243 213.244,339.946 213.244,273.078 50.772,273.078 50.772,384.243 "/>
<g>
	<polygon style="fill:#45CAE0;" points="50.772,273.078 50.772,345.407 123.101,273.078 	"/>
	<polygon style="fill:#45CAE0;" points="183.671,273.078 72.506,384.243 127.02,384.243 213.244,298.02 213.244,273.078 	"/>
	<polygon style="fill:#45CAE0;" points="148.042,384.243 191.095,384.243 213.244,339.946 213.244,319.04 	"/>
</g>
<path d="M511.987,230.066c-0.072-2.238-1.103-4.398-2.811-5.851L338.153,78.845c-5.107-4.343-13.209-0.579-13.209,6.108v85.511
	c0,2.126,0.844,4.165,2.347,5.668l25.653,25.653c4.948,4.945,13.686,1.321,13.686-5.668v-17.088l51.932,43.276H213.244
	c-4.427,0-8.017,3.589-8.017,8.017s3.589,8.017,8.017,8.017h282.722v180.643h-51.841c-4.428,0-8.017,3.589-8.017,8.017
	c0,4.427,3.588,8.017,8.017,8.017h59.858c4.428,0,8.017-3.589,8.017-8.017V230.322C512,230.236,511.989,230.152,511.987,230.066z
	 M363.747,155.755c-5.122-4.27-13.15-0.495-13.15,6.159v14.851l-9.62-9.62v-64.856l141.197,120.018h-38.566L363.747,155.755z"/>
<path d="M409.921,418.982H299.436l-36.265-72.529c-2.897-5.793-11.444-5.793-14.34,0l-36.264,72.529H16.033V238.339H179.04
	c4.427,0,8.017-3.589,8.017-8.017s-3.589-8.017-8.017-8.017H93.437l51.932-43.276v17.088c0,6.986,8.739,10.619,13.685,5.668
	l25.653-25.653c1.504-1.503,2.348-3.542,2.348-5.668V84.953c0-6.687-8.101-10.452-13.208-6.108L2.825,224.215
	C1.056,225.719,0,228.002,0,230.322v196.676c0,4.427,3.589,8.017,8.017,8.017H217.52c3.037,0,5.813-1.716,7.17-4.432L256,367.965
	l31.31,62.619c1.359,2.716,4.133,4.432,7.17,4.432h115.441c4.428,0,8.017-3.589,8.017-8.017
	C417.937,422.571,414.349,418.982,409.921,418.982z M171.023,167.144l-9.62,9.62v-14.851c0-6.653-8.025-10.428-13.148-6.159
	l-79.861,66.551H29.826l141.197-120.016V167.144z"/>
<path d="M320.905,392.26h140.322c4.428,0,8.017-3.589,8.017-8.017V273.078c0-4.427-3.588-8.017-8.017-8.017H298.756
	c-4.428,0-8.017,3.589-8.017,8.017v66.867c0,1.245,0.29,2.472,0.847,3.585l22.15,44.298
	C315.093,390.544,317.869,392.26,320.905,392.26z M306.772,281.095h146.438v95.132H325.859l-19.086-38.173V281.095z"/>
<path d="M42.756,273.078v111.165c0,4.427,3.589,8.017,8.017,8.017h140.322c3.037,0,5.813-1.716,7.17-4.432l22.15-44.298
	c0.557-1.114,0.847-2.34,0.847-3.585v-66.867c0-4.427-3.589-8.017-8.017-8.017H50.772C46.345,265.061,42.756,268.651,42.756,273.078
	z M58.789,281.095h146.438v56.958l-19.087,38.173H58.789V281.095z"/>
<g>
</g>
<g>
</g>
<g>
</g>
<g>
</g>
<g>
</g>
<g>
</g>
<g>
</g>
<g>
</g>
<g>
</g>
<g>
</g>
<g>
</g>
<g>
</g>
<g>
</g>
<g>
</g>
<g>
</g>
</svg>
